<?xml version="1.0" standalone="no"?>
<!DOCTYPE svg PUBLIC "-//W3C//DTD SVG 20010904//EN"
 "http://www.w3.org/TR/2001/REC-SVG-20010904/DTD/svg10.dtd">
<svg version="1.0" xmlns="http://www.w3.org/2000/svg"
 width="1044.000000pt" height="1044.000000pt" viewBox="0 0 1044.000000 1044.000000"
 preserveAspectRatio="xMidYMid meet">
<metadata>
Created by potrace 1.14, written by Peter Selinger 2001-2017
</metadata>
<g transform="translate(0.000000,1044.000000) scale(0.100000,-0.100000)"
fill="#000000" stroke="none">
<path d="M5185 10432 c-154 -18 -260 -128 -258 -267 2 -115 62 -194 186 -244
l60 -24 -7 -56 c-5 -50 -48 -230 -91 -381 -9 -30 -18 -64 -20 -76 -12 -57
-132 -390 -170 -470 -106 -227 -235 -353 -406 -396 -62 -16 -152 -15 -206 2
-67 21 -166 72 -197 101 -17 15 -49 40 -71 55 -80 54 -108 79 -153 138 -25 34
-49 63 -52 66 -23 20 -344 473 -385 543 l-28 49 53 46 c114 100 119 223 13
329 -99 99 -302 86 -400 -24 -58 -66 -66 -147 -22 -244 36 -79 131 -123 275
-128 24 -1 21 5 64 -161 31 -122 32 -127 59 -290 21 -122 22 -388 2 -485 -19
-89 -67 -181 -118 -223 -160 -134 -386 -90 -673 128 -69 53 -243 218 -324 307
l-28 32 31 44 c77 106 23 242 -109 274 -103 24 -209 -24 -246 -112 -18 -44
-18 -73 1 -118 33 -80 104 -119 209 -116 l69 2 102 -116 c271 -310 521 -690
680 -1032 26 -55 52 -110 58 -122 10 -22 16 -23 141 -23 144 0 4012 0 4089 0
46 0 48 1 64 43 28 71 147 306 208 412 51 89 214 339 250 383 7 9 47 62 88
117 41 55 86 112 99 126 12 14 48 55 78 90 116 133 95 120 190 122 101 3 146
26 179 93 36 72 25 139 -33 199 -54 56 -106 73 -180 56 -143 -32 -200 -154
-127 -272 l32 -51 -36 -43 c-42 -52 -242 -240 -305 -288 -131 -99 -247 -162
-364 -198 -59 -18 -173 -6 -233 25 -106 53 -186 171 -217 319 -27 131 -4 367
69 697 18 81 28 117 40 146 12 30 18 34 52 34 117 1 221 58 262 145 62 132
-14 268 -172 309 -132 34 -259 -18 -311 -128 -47 -98 -27 -179 62 -256 29 -25
52 -48 52 -53 0 -4 -15 -38 -32 -75 -130 -270 -493 -648 -770 -800 -92 -51
-195 -84 -262 -85 -201 -3 -420 300 -574 793 -16 52 -33 109 -37 125 -5 17 -9
35 -11 40 -1 6 -14 53 -29 105 -14 52 -36 145 -49 205 -23 109 -21 135 9 135
17 0 115 52 144 76 41 34 73 101 78 163 5 49 1 67 -20 112 -35 73 -64 103
-139 141 -62 32 -107 39 -183 30z"/>
<path d="M2349 7011 c0 -20 0 -827 0 -1794 l-1 -1759 29 -36 c16 -21 46 -59
67 -87 21 -27 47 -62 59 -76 12 -15 31 -39 42 -55 11 -15 40 -53 65 -84 25
-31 56 -72 70 -90 14 -18 104 -135 202 -261 97 -125 194 -251 216 -281 22 -29
102 -132 177 -228 75 -96 146 -188 158 -204 12 -16 42 -55 67 -87 25 -32 55
-71 68 -88 13 -16 150 -194 305 -394 155 -200 292 -377 304 -393 56 -73 218
-282 239 -309 34 -42 34 -43 84 -110 25 -33 50 -65 55 -71 6 -6 111 -142 235
-302 124 -161 227 -292 230 -292 3 0 5 1107 5 2460 l0 2460 -30 1 c-37 1
-1459 1 -1498 0 l-27 -1 2 -447 3 -448 315 -1 c173 -1 320 -2 325 -3 10 -1 15
-1391 5 -1391 -3 0 -17 17 -32 38 -15 20 -36 48 -47 62 -11 14 -93 120 -183
236 -90 116 -175 226 -190 245 -14 19 -70 90 -123 159 -52 69 -106 139 -120
155 -13 17 -59 76 -102 132 l-78 103 0 1187 0 1188 420 2 c231 1 429 0 440 -2
20 -4 20 -12 20 -371 0 -317 2 -367 15 -373 20 -9 868 -6 877 3 12 12 10 1626
-2 1636 -5 4 -607 7 -1337 7 l-1328 0 -1 -36z"/>
<path d="M5420 6930 c-2 -2136 1 -6914 3 -6917 2 -2 30 31 63 74 32 43 68 89
81 103 13 14 23 28 23 31 0 3 9 17 21 30 11 13 60 76 107 139 48 63 92 120 97
126 6 6 44 55 85 108 41 54 95 124 120 156 25 31 56 72 70 90 14 19 41 54 61
79 19 25 66 87 104 136 38 50 75 97 82 105 15 18 359 462 518 670 61 78 115
148 120 154 6 6 50 63 98 127 48 63 96 125 107 137 11 12 20 25 20 31 0 5 4
11 8 13 5 2 37 41 73 87 35 46 91 118 124 161 33 43 112 145 175 226 63 82
118 154 122 159 5 6 54 69 109 140 55 72 111 144 124 160 68 87 82 105 99 130
11 14 28 36 38 47 10 12 18 37 19 57 4 258 0 3544 -5 3549 -4 4 -606 7 -1337
7 l-1329 0 0 -115z m1776 -1973 l0 -1189 -198 -256 c-109 -141 -209 -270 -222
-287 -38 -47 -144 -184 -221 -285 -38 -50 -80 -104 -91 -118 -107 -133 -134
-168 -134 -174 0 -5 -3 -8 -8 -8 -5 0 -9 3501 -3 3506 0 1 198 1 439 0 l437
-1 1 -1188z"/>
</g>
</svg>
